<svg width="32" height="32" viewBox="0 0 32 32" fill="none" xmlns="http://www.w3.org/2000/svg">
<path d="M5.17625 18.5535C5.61854 18.5535 5.97375 18.9126 6.0091 19.3535C6.14521 21.0514 6.7129 22.6914 7.66414 24.115C8.7641 25.7612 10.3275 27.0443 12.1567 27.8019C13.9858 28.5596 15.9986 28.7578 17.9404 28.3716C19.8823 27.9853 21.6659 27.0319 23.0659 25.6319C24.4659 24.232 25.4193 22.4483 25.8056 20.5064C26.1918 18.5646 25.9936 16.5519 25.2359 14.7227C24.4783 12.8935 23.1952 11.3301 21.549 10.2302C19.9028 9.13019 17.9674 8.54309 15.9875 8.54309H12.7842C12.3419 8.54309 11.9833 8.90164 11.9833 9.34393V11.6149C11.9833 12.3284 11.1207 12.6857 10.6162 12.1812L6.54336 8.10833C6.23061 7.79558 6.23061 7.28852 6.54336 6.97578L10.6162 2.90291C11.1207 2.39842 11.9833 2.75572 11.9833 3.46919V5.74018C11.9833 6.18247 12.3419 6.54101 12.7842 6.54101H15.9875C18.3633 6.54101 20.6858 7.24553 22.6613 8.56548C24.6367 9.88543 26.1764 11.7615 27.0856 13.9565C27.9948 16.1515 28.2327 18.5668 27.7692 20.897C27.3057 23.2272 26.1616 25.3676 24.4816 27.0476C22.8016 28.7276 20.6612 29.8717 18.331 30.3352C16.0008 30.7987 13.5855 30.5608 11.3905 29.6516C9.19552 28.7424 7.31942 27.2027 5.99947 25.2273C4.82818 23.4743 4.1415 21.4481 4.00168 19.3538C3.97222 18.9125 4.33355 18.5535 4.77583 18.5535H5.17625Z" fill="#212121"/>
<path d="M19.6464 22.688C19.204 22.6988 18.7653 22.6063 18.365 22.4177C18.0096 22.2373 17.7037 21.9727 17.4741 21.6469C17.2224 21.2668 17.0457 20.8421 16.9536 20.3956C16.8353 19.843 16.7782 19.279 16.7834 18.7138C16.7793 18.1488 16.8364 17.5849 16.9536 17.0321C17.0475 16.5862 17.2241 16.1618 17.4741 15.7808C17.7037 15.455 18.0096 15.1904 18.365 15.01C18.7653 14.8214 19.204 14.7289 19.6464 14.7397C20.0623 14.7081 20.4793 14.7835 20.8578 14.9587C21.2363 15.1339 21.5637 15.4032 21.8086 15.7407C22.3248 16.6285 22.5685 17.6486 22.5093 18.6738C22.5685 19.699 22.3248 20.7191 21.8086 21.6068C21.573 21.9592 21.2497 22.2441 20.8706 22.4337C20.4915 22.6232 20.0696 22.7109 19.6464 22.688ZM19.6464 21.4667C19.8482 21.4788 20.0493 21.4335 20.2264 21.336C20.4036 21.2386 20.5495 21.093 20.6474 20.9161C20.8866 20.4479 21.0135 19.9304 21.0178 19.4046V18.0231C21.0394 17.5068 20.94 16.9926 20.7275 16.5216C20.6156 16.3501 20.4627 16.2093 20.2827 16.1118C20.1026 16.0143 19.9011 15.9633 19.6964 15.9633C19.4917 15.9633 19.2902 16.0143 19.1102 16.1118C18.9301 16.2093 18.7772 16.3501 18.6653 16.5216C18.4528 16.9926 18.3534 17.5068 18.375 18.0231V19.4046C18.3544 19.924 18.4537 20.4413 18.6653 20.9161C18.7608 21.0906 18.9034 21.2348 19.0769 21.3321C19.2503 21.4295 19.4477 21.4761 19.6464 21.4667ZM10.637 22.5578V21.3766H12.6391V16.1812L10.7771 17.1822L10.2266 16.1211L12.549 14.8198H14.0105V21.3266H15.7924V22.5578H10.637Z" fill="#212121"/>
</svg>
