<svg width="32" height="32" viewBox="0 0 32 32" fill="none" xmlns="http://www.w3.org/2000/svg">
<path d="M26.8237 18.5535C26.3815 18.5535 26.0262 18.9126 25.9909 19.3535C25.8548 21.0514 25.2871 22.6914 24.3359 24.115C23.2359 25.7612 21.6725 27.0443 19.8433 27.8019C18.0142 28.5596 16.0014 28.7578 14.0596 28.3716C12.1177 27.9853 10.3341 27.0319 8.93407 25.6319C7.53409 24.232 6.58069 22.4483 6.19444 20.5064C5.80818 18.5646 6.00642 16.5519 6.76409 14.7227C7.52175 12.8935 8.80481 11.3301 10.451 10.2302C12.0972 9.13019 14.0326 8.54309 16.0125 8.54309H19.2158C19.6581 8.54309 20.0167 8.90164 20.0167 9.34393V11.6149C20.0167 12.3284 20.8793 12.6857 21.3838 12.1812L25.4566 8.10833C25.7694 7.79558 25.7694 7.28852 25.4566 6.97578L21.3838 2.90291C20.8793 2.39842 20.0167 2.75572 20.0167 3.46919V5.74018C20.0167 6.18247 19.6581 6.54101 19.2158 6.54101H16.0125C13.6367 6.54101 11.3142 7.24553 9.33872 8.56548C7.36327 9.88543 5.8236 11.7615 4.9144 13.9565C4.0052 16.1515 3.76732 18.5668 4.23082 20.897C4.69433 23.2272 5.83841 25.3676 7.51838 27.0476C9.19836 28.7276 11.3388 29.8717 13.669 30.3352C15.9992 30.7987 18.4145 30.5608 20.6095 29.6516C22.8045 28.7424 24.6806 27.2027 26.0005 25.2273C27.1718 23.4743 27.8585 21.4481 27.9983 19.3538C28.0278 18.9125 27.6665 18.5535 27.2242 18.5535H26.8237Z" fill="#212121"/>
<path d="M19.6464 22.688C19.204 22.6988 18.7653 22.6063 18.365 22.4177C18.0096 22.2373 17.7037 21.9727 17.4741 21.6469C17.2224 21.2668 17.0457 20.8421 16.9536 20.3956C16.8353 19.843 16.7782 19.279 16.7834 18.7138C16.7793 18.1488 16.8364 17.5849 16.9536 17.0321C17.0475 16.5862 17.2241 16.1618 17.4741 15.7808C17.7037 15.455 18.0096 15.1904 18.365 15.01C18.7653 14.8214 19.204 14.7289 19.6464 14.7397C20.0623 14.7081 20.4793 14.7835 20.8578 14.9587C21.2363 15.1339 21.5637 15.4032 21.8086 15.7407C22.3248 16.6285 22.5685 17.6486 22.5093 18.6738C22.5685 19.699 22.3248 20.7191 21.8086 21.6068C21.573 21.9592 21.2497 22.2441 20.8706 22.4337C20.4915 22.6232 20.0696 22.7109 19.6464 22.688V22.688ZM19.6464 21.4667C19.8482 21.4788 20.0493 21.4335 20.2264 21.336C20.4036 21.2386 20.5495 21.093 20.6474 20.9161C20.8866 20.4479 21.0135 19.9304 21.0178 19.4046V18.0231C21.0394 17.5068 20.94 16.9926 20.7275 16.5216C20.6156 16.3501 20.4627 16.2093 20.2827 16.1118C20.1026 16.0143 19.9011 15.9633 19.6964 15.9633C19.4917 15.9633 19.2902 16.0143 19.1102 16.1118C18.9301 16.2093 18.7772 16.3501 18.6653 16.5216C18.4528 16.9926 18.3534 17.5068 18.375 18.0231V19.4046C18.3544 19.924 18.4537 20.4413 18.6653 20.9161C18.7608 21.0906 18.9034 21.2348 19.0769 21.3321C19.2503 21.4295 19.4477 21.4761 19.6464 21.4667V21.4667ZM10.637 22.5578V21.3766H12.6391V16.1812L10.7771 17.1822L10.2266 16.1211L12.549 14.8198H14.0105V21.3266H15.7924V22.5578H10.637Z" fill="#212121"/>
</svg>
