<svg width="32" height="33" viewBox="0 0 32 33" fill="none" xmlns="http://www.w3.org/2000/svg">
<path d="M8.72806 2.90899V14.8423C8.72806 15.066 8.48502 15.2077 8.28289 15.112C7.00211 14.5052 5.48404 14.3203 3.88458 14.8795C1.93556 15.5777 0.437428 17.3085 0.0883486 19.3448C-0.0730289 20.2611 -0.0127135 21.2026 0.264252 22.0908C0.541218 22.979 1.02679 23.7879 1.68036 24.45C2.33393 25.1122 3.13652 25.6082 4.02101 25.8967C4.90551 26.1851 5.84622 26.2577 6.76449 26.1082C9.6153 25.6573 11.6371 23.0392 11.6371 20.1448V13.665C11.6371 13.48 11.8075 13.342 11.9884 13.3804L23.0426 15.7301C23.177 15.7586 23.273 15.8773 23.273 16.0146V20.6603C23.273 20.884 23.03 21.0257 22.8279 20.9299C21.5471 20.3232 20.029 20.1383 18.4295 20.6975C16.4805 21.3956 14.9824 23.1265 14.6333 25.1628C14.4719 26.079 14.5323 27.0206 14.8092 27.9088C15.0862 28.7969 15.5717 29.6059 16.2253 30.268C16.8789 30.9301 17.6815 31.4262 18.566 31.7146C19.4505 32.0031 20.3912 32.0757 21.3095 31.9262C24.1603 31.4753 26.182 28.8572 26.182 25.9628V11.9269C26.182 11.7662 26.3123 11.636 26.4729 11.636H29.091C30.691 11.636 32 10.3269 32 8.72698C32 7.12703 30.691 5.81799 29.091 5.81799H26.182C24.5821 5.81799 23.273 7.12703 23.273 8.72698V12.4458C23.273 12.6308 23.1026 12.7689 22.9216 12.7304L11.8675 10.3807C11.7331 10.3522 11.6371 10.2336 11.6371 10.0962V6.10888C11.6371 5.94823 11.7673 5.81799 11.9279 5.81799H14.546C16.146 5.81799 17.455 4.50894 17.455 2.90899C17.455 1.30905 16.146 0 14.546 0H11.6371C10.0371 0 8.72806 1.30905 8.72806 2.90899Z" fill="white"/>
</svg>
